<svg width="156" height="48" viewBox="0 0 156 48" fill="none" xmlns="http://www.w3.org/2000/svg">
<path d="M146.945 4.94493L143.168 11.4738C146.294 14.1332 148.437 18.2379 148.437 22.8509C148.437 31.2451 141.488 38.1479 132.909 38.1479C124.376 38.1479 117.427 31.2451 117.427 22.6198C117.427 21.5947 117.519 20.5696 117.708 19.5865L110.621 23.6912C110.621 35.8162 120.927 45.2355 132.913 45.2355C145.458 45.2355 155.625 35.1145 155.625 22.7585C155.621 15.528 152.121 9.18826 146.945 4.94493Z" fill="#404553"/>
<path d="M136.081 7.74302L139.904 1.11755C137.757 0.327702 135.845 0 133.934 0C132.489 0 131.228 0.184858 130.295 0.373917L125.447 8.76814C127.22 7.74302 129.506 7.18425 131.976 7.18425C133.421 7.18004 134.728 7.3691 136.081 7.74302Z" fill="#404553"/>
<path d="M93.7986 22.3426C93.7986 25.7961 90.9879 28.6025 87.5386 28.6025H57.3816V22.6535C57.3816 19.1706 55.8481 15.8894 53.1803 13.6459C50.5124 11.4066 46.9917 10.4739 43.5172 11.0873C38.7109 11.9317 34.9088 15.7339 34.0643 20.5402C33.4509 24.0147 34.3878 27.5396 36.6229 30.2032C38.8622 32.8753 42.1476 34.4045 45.6305 34.4045H51.4913C51.2141 36.4674 50.2309 38.3664 48.6933 39.7948C47.0253 41.3451 44.8575 42.198 42.5846 42.198H42.1434V48H42.5846C46.3909 48 50.0083 46.5505 52.7727 43.9163C55.4196 41.3913 57.0245 38.0261 57.3186 34.4045H87.5428C94.1935 34.4045 99.6048 28.9933 99.6048 22.3426V15.3642H93.8028V22.3426H93.7986ZM51.5796 22.6535V28.6025H45.6263C43.8618 28.6025 42.198 27.8253 41.0637 26.4725C39.9125 25.1028 39.4546 23.3509 39.7739 21.5443C40.194 19.1664 42.1434 17.217 44.5214 16.7968C46.3279 16.4775 48.0757 16.9355 49.4495 18.0866C50.8023 19.2252 51.5796 20.8889 51.5796 22.6535Z" fill="#404553"/>
<path d="M23.7962 26.3843C23.7962 31.346 19.7588 35.3793 14.8012 35.3793C9.83948 35.3793 5.80622 31.3418 5.80622 26.3843V15.3936H0V26.3843C0 34.5432 6.63808 41.1813 14.797 41.1813C22.956 41.1813 29.5941 34.5432 29.5941 26.3843V15.3936H23.7962V26.3843Z" fill="#404553"/>
<path d="M14.797 10.8016C16.5448 10.8016 17.9648 9.38154 17.9648 7.63379C17.9648 5.88605 16.5448 4.466 14.797 4.466C13.0493 4.466 11.6293 5.88605 11.6293 7.63379C11.6335 9.38154 13.0535 10.8016 14.797 10.8016Z" fill="#404553"/>
<path d="M87.9504 10.8016C89.6981 10.8016 91.1182 9.38154 91.1182 7.63379C91.1182 5.88605 89.6981 4.466 87.9504 4.466C86.2026 4.466 84.7826 5.88605 84.7826 7.63379C84.7826 9.38154 86.2026 10.8016 87.9504 10.8016Z" fill="#404553"/>
</svg>
